<svg width="20" height="18" viewBox="0 0 20 18" fill="none" xmlns="http://www.w3.org/2000/svg">
<path d="M12.308 15.7103C14.4871 14.0753 17.6316 11.5156 18.942 9.46844C19.9225 7.93903 20.2415 6.04422 19.815 4.28246C18.9038 0.269317 13.8581 -1.37055 10.7152 1.31882C10.5384 1.46907 10.3755 1.63564 10.2082 1.80668C10.14 1.87648 10.071 1.94702 10 2.0175C9.92902 1.94702 9.86 1.87647 9.79177 1.80667C9.62451 1.63564 9.46157 1.46907 9.28481 1.31882C6.14186 -1.37055 1.09618 0.269317 0.184998 4.28246C-0.241473 6.04422 0.0775173 7.93903 1.05805 9.46844C2.36842 11.5156 5.51294 14.0753 7.69196 15.7103C8.29912 16.166 10 17.353 10 17.353C10 17.353 11.7009 16.166 12.308 15.7103Z" fill="black"/>
</svg>
