<svg width="20" height="19" viewBox="0 0 20 19" fill="none" xmlns="http://www.w3.org/2000/svg">
<path d="M10 0L12.8801 6.03582L19.5106 6.90983L14.6602 11.5142L15.8779 18.0902L10 14.9L4.12215 18.0902L5.33982 11.5142L0.489435 6.90983L7.11985 6.03582L10 0Z" fill="#F5EBCF"/>
<path d="M10 1.16101L12.4289 6.25115L12.5458 6.49606L12.8148 6.53153L18.4064 7.2686L14.3159 11.1516L14.1191 11.3384L14.1685 11.6052L15.1954 17.1509L10.2385 14.4606L10 14.3311L9.76149 14.4606L4.80457 17.1509L5.83147 11.6052L5.88088 11.3384L5.68406 11.1516L1.59362 7.2686L7.1852 6.53153L7.45424 6.49606L7.57111 6.25115L10 1.16101Z" stroke="black" stroke-opacity="0.6"/>
</svg>
